<svg width="300" height="300" viewBox="0 0 300 300" fill="none" xmlns="http://www.w3.org/2000/svg">
<path d="M100.689 114.884C100.689 107.216 94.4735 101 86.8058 101H76.7165C59.9244 101 46.3117 114.613 46.3117 131.405V131.405H100.689V114.884Z" fill="url(#paint0_linear_141_4316)"/>
<path fill-rule="evenodd" clip-rule="evenodd" d="M33.8837 101C26.2159 101 20 107.216 20 114.884V131.405L44.5577 131.405V168.241C44.5577 184.71 57.9086 198.061 74.3777 198.061C83.4196 198.061 90.7495 190.731 90.7495 181.69C90.7495 180.064 90.5126 178.494 90.0715 177.012H86.6565C80.0711 177.012 74.6965 171.828 74.3913 165.318L74.3777 165.318L74.3777 131.405C74.3777 114.613 60.765 101 43.9729 101H33.8837Z" fill="url(#paint1_linear_141_4316)"/>
<path fill-rule="evenodd" clip-rule="evenodd" d="M62.099 148.946C62.099 139.258 54.2455 131.404 44.5578 131.404V157.716V167.656V168.296C44.5874 184.728 57.9085 198.042 74.3437 198.061L74.3778 198.061C83.4197 198.061 90.7496 190.731 90.7496 181.689C90.7496 179.981 90.4881 178.335 90.003 176.787C87.6973 177.687 85.1882 178.181 82.5637 178.181C75.1162 178.181 68.5978 174.203 65.0178 168.255C65.0178 168.255 65.0177 168.255 65.0177 168.255C63.172 165.189 62.1074 161.599 62.099 157.762V148.946ZM44.5578 135.491V131.404H40.4648C42.7231 131.404 44.5542 133.233 44.5578 135.491Z" fill="url(#paint2_linear_141_4316)"/>
<path d="M280 197.028C277.091 197.512 273.807 197.755 270.149 197.755C266.579 197.755 263.295 197.512 260.298 197.028V152.598C260.298 150.394 259.835 148.587 258.909 147.177C258.028 145.766 256.419 145.061 254.083 145.061H252.232C251.659 142.901 251.372 140.676 251.372 138.384C251.372 137.282 251.438 136.114 251.57 134.879C251.703 133.601 251.923 132.389 252.232 131.243C254.171 131.023 256.154 130.869 258.182 130.78C260.254 130.648 261.973 130.582 263.339 130.582H266.116C270.347 130.582 273.719 131.97 276.231 134.747C278.744 137.48 280 141.182 280 145.855V197.028Z" fill="#7C26DC"/>
<path d="M193.406 130.251C197.196 130.251 200.039 131.53 201.935 134.086C203.83 136.643 204.778 140.125 204.778 144.532V197.028C201.869 197.512 198.585 197.755 194.927 197.755C191.356 197.755 188.051 197.512 185.009 197.028V131.177L185.935 130.251H193.406ZM241.207 180.829C241.207 183.386 241.449 185.788 241.934 188.036C242.419 190.24 243.235 192.179 244.38 193.854C242.926 195.044 241.119 196.036 238.959 196.829C236.843 197.623 234.551 198.019 232.083 198.019C228.116 198.019 225.361 196.983 223.819 194.912C222.276 192.796 221.505 189.777 221.505 185.854V156.896C221.505 153.722 221.086 151.386 220.249 149.888C219.411 148.389 217.824 147.64 215.488 147.64C214.034 147.64 212.337 148.036 210.397 148.83C208.502 149.579 206.629 150.813 204.778 152.532C202.97 154.207 201.384 156.433 200.017 159.21V141.822C203.103 138.736 206.497 135.981 210.199 133.557C213.946 131.133 218.155 129.921 222.827 129.921C226.882 129.921 230.276 130.935 233.009 132.962C235.741 134.946 237.791 137.678 239.157 141.16C240.524 144.642 241.207 148.653 241.207 153.193V180.829Z" fill="#7C26DC"/>
<path d="M168.305 178.251C168.305 180.411 168.636 182.394 169.297 184.201C169.958 185.964 170.862 187.287 172.008 188.168C171.611 189.931 170.795 191.782 169.561 193.722C168.371 195.661 167.137 197.116 165.859 198.085C160.217 197.865 155.92 195.859 152.966 192.069C150.057 188.234 148.603 183.65 148.603 178.317V131.111C151.424 130.626 154.707 130.384 158.454 130.384C162.024 130.384 165.308 130.626 168.305 131.111V178.251ZM112.107 147.309C112.107 144.753 111.865 142.372 111.38 140.169C110.939 137.921 110.146 135.959 109 134.284C110.41 133.094 112.196 132.103 114.355 131.309C116.515 130.516 118.829 130.119 121.297 130.119C125.22 130.119 127.953 131.177 129.496 133.293C131.038 135.364 131.81 138.361 131.81 142.284V171.243C131.81 174.416 132.228 176.752 133.066 178.251C133.903 179.749 135.49 180.499 137.826 180.499C139.325 180.499 141.022 180.124 142.917 179.375C144.812 178.581 146.686 177.325 148.537 175.606C150.432 173.887 152.041 171.661 153.363 168.929V186.317C150.278 189.402 146.862 192.157 143.115 194.581C139.413 197.005 135.204 198.218 130.487 198.218C126.476 198.218 123.105 197.226 120.372 195.242C117.639 193.215 115.567 190.46 114.157 186.978C112.791 183.452 112.107 179.441 112.107 174.945V147.309Z" fill="#7C26DC"/>
<circle cx="267.5" cy="112.5" r="11.5" fill="#FF623A"/>
<defs>
<linearGradient id="paint0_linear_141_4316" x1="100.689" y1="101" x2="73.7929" y2="131.405" gradientUnits="userSpaceOnUse">
<stop stop-color="#6ED9EB"/>
<stop offset="1" stop-color="#41A0F8"/>
</linearGradient>
<linearGradient id="paint1_linear_141_4316" x1="27.3088" y1="101" x2="85.4872" y2="185.49" gradientUnits="userSpaceOnUse">
<stop stop-color="#7D27E2"/>
<stop offset="1" stop-color="#660370"/>
</linearGradient>
<linearGradient id="paint2_linear_141_4316" x1="45.1425" y1="131.404" x2="82.2714" y2="198.061" gradientUnits="userSpaceOnUse">
<stop stop-color="#FE0AB9"/>
<stop offset="1" stop-color="#FE6A2C"/>
</linearGradient>
</defs>
</svg>
